<?xml version="1.0" encoding="UTF-8"?>
<!DOCTYPE svg PUBLIC "-//W3C//DTD SVG 1.1//EN" "http://www.w3.org/Graphics/SVG/1.1/DTD/svg11.dtd">
<svg version="1.1" xmlns="http://www.w3.org/2000/svg" x="0" y="0" width="512" height="512" viewBox="0, 0, 512, 512">
  <g id="Layer 1">
    <path d="M71,460 L30,0 L481,0 L440,460 L255,512" fill="#005799"/>
    <path d="M256,472 L405,431 L440,37 L256,37" fill="#0063AE"/>
  </g>
  <g id="3 Bottom">
    <path d="M255,414 L255,355 L318,338 L325,265 L255,265 L255,208 L330,208 L335,150 L255,150 L255,94 L397,94 L396,109 L382,265 L381.984,265 L372,372 L371,382 z" fill="#FFFFFF"/>
    <path d="M255,414 L139,382 L132,293 L188,293 L192,338 L255,355 L256,355 L256,414 z" fill="#EBEBEB"/>
    <path d="M129.664,265 C129.382,261.92 129.069,258.842 128.818,255.759 C128.421,250.893 127.323,235.054 126.581,228.009 C125.841,220.987 124.961,214.994 124,208 L256,208 L256,265 z" fill="#EBEBEB"/>
    <path d="M119,150 C118.667,146 118.39,141.995 118,138 C114.053,97.539 115.869,122.036 114,94 L256,94 L256,150 z" fill="#EBEBEB"/>
  </g>
  <defs/>
</svg>
