<?xml version="1.0" encoding="UTF-8"?>
<!DOCTYPE svg PUBLIC "-//W3C//DTD SVG 1.1//EN" "http://www.w3.org/Graphics/SVG/1.1/DTD/svg11.dtd">
<svg version="1.1" xmlns="http://www.w3.org/2000/svg" x="0" y="0" width="512" height="512" viewBox="0, 0, 512, 512">
  <g id="Shield">
    <path d="M71,460 L30,0 L481,0 L440,460 L255,512" fill="#C6B700"/>
    <path d="M256,472 L405,431 L440,37 L256,37" fill="#D7C70A"/>
  </g>
  <g id="J">
    <path d="M255,414 L255,355 L318,338 L325,265 L330,208 L335,150 L255,150 L255,94 L397,94 L396,109 L382,265 L381.984,265 L372,372 L371,382 z" fill="#FFFFFF"/>
    <path d="M255,414 L139,382 L132,293 L188,293 L192,338 L255,355 L256,355 L256,414 z" fill="#EBEBEB"/>
    <path d="M119,150 C118.667,146 118.39,141.995 118,138 C114.053,97.539 115.869,122.036 114,94 L256,94 L256,150 z" fill="#EBEBEB"/>
  </g>
  <g id="S">
    <path d="M201.241,317.596 L197.819,278.484 C217.213,278.473 236.606,278.452 256,278.431 L256,317.596 z" fill="#D9D9D9"/>
    <path d="M196.103,258.87 L187.543,161.031 L256,161.031 L256,200.144 L221.753,200.144 L223.458,219.635 L256,219.677 L256,258.824 C239.536,258.834 223.071,258.853 206.607,258.87 L206.607,258.862 z" fill="#D9D9D9"/>
    <path d="M256,317.596 L256,278.431 C275.877,278.41 267.331,278.419 281.638,278.404 L283.353,258.803 C264.938,258.817 274.056,258.811 256,258.824 L256,219.677 L318.319,219.757 L309.759,317.596 z" fill="#F2F2F2"/>
    <path d="M256,200.144 L256,161.031 L323.457,161.031 L320.035,200.144 L299.253,200.117 L299.255,200.144 z" fill="#F2F2F2"/>
  </g>
  <defs/>
</svg>
